:FULLY-SPECIFIED
:FORCE-ALL-JOINTS-BE-3DOF
:DEGREES
442
root 1.48949 15.2316 -9.1147 5.49212 4.83139 -13.5423
lfemur -46.8501 16.8114 3.9745
ltibia 62.9553 0 0
lfoot -24.9916 -10.2701 0
ltoes -12.7255 0 0
rfemur -14.9411 -3.44768 8.90199
rtibia 38.8284 0 0
rfoot -14.6389 -13.9723 0
rtoes -49.791 0 0
lowerback 6.02945 1.6015 4.3986
upperback 1.01281 2.43843 0.924751
thorax -2.1908 1.18676 -1.7001
lowerneck -7.15866 0.0337935 5.62298
upperneck 0.687406 -0.434285 0.0690367
head 1.41974 -0.189785 -0.949097
lclavicle 2.90226e-14 6.36111e-15 0
lhumerus -39.6318 -28.4329 97.6213
lradius 54.1431 0 0
lwrist 7.92235 0 0
lhand -20.0855 -1.30814 0
lfingers 7.12502 0 0
lthumb 6.25724 28.5794 0
rclavicle 2.90226e-14 6.36111e-15 0
rhumerus -48.3514 -2.52445 -89.7222
rradius 66.3347 0 0
rwrist 12.906 0 0
rhand -30.9208 -29.1118 0
rfingers 7.12502 0 0
rthumb -4.20662 -779.05 0
443
root 1.54028 15.267 -9.04863 5.42261 6.6673 -13.5243
lfemur -47.1042 16.8549 2.8809
ltibia 62.6561 0 0
lfoot -24.7698 -9.90363 0
ltoes -11.5222 0 0
rfemur -14.3214 -3.40927 9.12192
rtibia 38.8262 0 0
rfoot -12.7652 -13.9972 0
rtoes -49.6907 0 0
lowerback 5.75798 1.53376 4.44896
upperback 0.925805 2.33781 0.989233
thorax -2.1344 1.13679 -1.6534
lowerneck -7.20532 -0.17629 5.48012
upperneck 0.789273 -0.705625 0.0917707
head 1.45801 -0.323734 -0.929568
lclavicle 2.48954e-14 5.03588e-15 0
lhumerus -39.9698 -28.2163 97.9918
lradius 54.025 0 0
lwrist 7.59935 0 0
lhand -20.2725 -1.85678 0
lfingers 7.12502 0 0
lthumb 6.07663 28.0345 0
rclavicle 2.48954e-14 5.03588e-15 0
rhumerus -48.6724 -2.56622 -89.2839
rradius 66.1313 0 0
rwrist 12.7914 0 0
rhand -30.9447 -29.1498 0
rfingers 7.12502 0 0
rthumb -4.22969 -779.088 0
444
root 1.59107 15.3024 -8.98255 5.35311 8.50321 -13.5063
lfemur -47.3583 16.8985 1.78731
ltibia 62.357 0 0
lfoot -24.548 -9.53717 0
ltoes -10.3189 0 0
rfemur -13.7017 -3.37087 9.34186
rtibia 38.824 0 0
rfoot -10.8915 -14.022 0
rtoes -49.5903 0 0
lowerback 5.4865 1.46603 4.49933
upperback 0.838801 2.23719 1.05372
thorax -2.07799 1.08682 -1.6067
lowerneck -7.25199 -0.386373 5.33726
upperneck 0.891141 -0.976965 0.114505
head 1.49628 -0.457684 -0.910039
lclavicle 2.07683e-14 3.71065e-15 0
lhumerus -40.3077 -27.9998 98.3623
lradius 53.9069 0 0
lwrist 7.27636 0 0
lhand -20.4596 -2.40541 0
lfingers 7.12502 0 0
lthumb 5.89603 27.4896 0
rclavicle 2.07683e-14 3.71065e-15 0
rhumerus -48.9934 -2.60798 -88.8456
rradius 65.9278 0 0
rwrist 12.6768 0 0
rhand -30.9686 -29.1878 0
rfingers 7.12502 0 0
rthumb -4.25276 -779.125 0
445
root 1.64186 15.3377 -8.91648 5.2836 10.3391 -13.4884
lfemur -47.6123 16.942 0.693714
ltibia 62.0578 0 0
lfoot -24.3263 -9.1707 0
ltoes -9.1156 0 0
rfemur -13.082 -3.33246 9.56179
rtibia 38.8218 0 0
rfoot -9.01779 -14.0469 0
rtoes -49.49 0 0
lowerback 5.21503 1.39829 4.54969
upperback 0.751796 2.13657 1.1182
thorax -2.02159 1.03685 -1.56
lowerneck -7.29865 -0.596457 5.1944
upperneck 0.993008 -1.2483 0.137239
head 1.53455 -0.591633 -0.89051
lclavicle 1.66411e-14 2.38542e-15 0
lhumerus -40.6457 -27.7832 98.7328
lradius 53.7888 0 0
lwrist 6.95336 0 0
lhand -20.6466 -2.95405 0
lfingers 7.12502 0 0
lthumb 5.71542 26.9446 0
rclavicle 1.66411e-14 2.38542e-15 0
rhumerus -49.3144 -2.64975 -88.4072
rradius 65.7244 0 0
rwrist 12.5622 0 0
rhand -30.9925 -29.2258 0
rfingers 7.12502 0 0
rthumb -4.27584 -779.163 0
